<?xml version="1.0" encoding="UTF-8" standalone="no"?>
<!-- Created with Inkscape (http://www.inkscape.org/) -->

<svg
   width="512mm"
   height="512mm"
   viewBox="0 0 512 512"
   version="1.1"
   id="svg1"
   xml:space="preserve"
   sodipodi:docname="icon.svg"
   inkscape:version="1.4 (86a8ad7, 2024-10-11)"
   inkscape:export-filename="icon.png"
   inkscape:export-xdpi="25.4"
   inkscape:export-ydpi="25.4"
   xmlns:inkscape="http://www.inkscape.org/namespaces/inkscape"
   xmlns:sodipodi="http://sodipodi.sourceforge.net/DTD/sodipodi-0.dtd"
   xmlns="http://www.w3.org/2000/svg"
   xmlns:svg="http://www.w3.org/2000/svg"><sodipodi:namedview
     id="namedview1"
     pagecolor="#ffffff"
     bordercolor="#000000"
     borderopacity="0.25"
     inkscape:showpageshadow="2"
     inkscape:pageopacity="0.0"
     inkscape:pagecheckerboard="0"
     inkscape:deskcolor="#d1d1d1"
     inkscape:document-units="mm"
     inkscape:zoom="0.49790243"
     inkscape:cx="652.73833"
     inkscape:cy="993.16648"
     inkscape:window-width="2560"
     inkscape:window-height="1417"
     inkscape:window-x="1072"
     inkscape:window-y="-8"
     inkscape:window-maximized="1"
     inkscape:current-layer="layer1" /><defs
     id="defs1"><clipPath
       clipPathUnits="userSpaceOnUse"
       id="clipPath16"><path
         d="M 0,2048 H 2048 V 0 H 0 Z"
         id="path14" /></clipPath><clipPath
       clipPathUnits="userSpaceOnUse"
       id="clipPath28"><path
         d="M 197.903,1024 C 197.903,567.76 567.76,197.903 1024,197.903 v 0 c 456.241,0 826.097,369.857 826.097,826.097 v 0 c 0,456.241 -369.856,826.097 -826.097,826.097 v 0 c -456.24,0 -826.097,-369.856 -826.097,-826.097"
         id="path26" /></clipPath><clipPath
       clipPathUnits="userSpaceOnUse"
       id="clipPath60"><path
         d="M 0,2048 H 2048 V 0 H 0 Z"
         id="path58" /></clipPath><clipPath
       clipPathUnits="userSpaceOnUse"
       id="clipPath17"><path
         id="path17"
         style="fill:#d45500;stroke-width:34.627"
         inkscape:connector-curvature="0"
         d="m 1024.1909,1850.0852 c -47.64695,0 -94.40268,-4.2796 -139.84447,-12.0272 l -22.16074,-234.9538 c -46.99516,-13.0991 -91.4737,-31.4161 -133.07823,-54.883 L 547.525,1698.2148 C 470.81894,1643.9235 403.68108,1577.1756 349.40017,1500.4918 L 499.7707,1318.9186 c -23.44065,-41.5549 -42.16468,-86.1446 -55.26114,-133.077 l -234.57951,-22.1804 c -7.74768,-45.4548 -12.02723,-92.1831 -12.02723,-139.8431 0,-47.74381 4.25337,-94.31759 12.02723,-139.84445 L 444.50956,861.79334 C 457.60734,814.85959 476.33005,770.2712 499.7707,728.71506 L 349.77839,547.14304 c 54.1841,-76.4875 120.87438,-143.55341 197.36184,-197.73746 l 181.94628,150.37055 c 41.63202,-23.48912 86.0477,-42.15424 133.07826,-55.26117 l 22.18041,-234.95249 c 45.44041,-7.7476 92.1961,-11.64764 139.84312,-11.64764 47.647,0 94.0297,3.9131 139.47,11.64764 l 22.1791,234.95249 c 47.0306,13.10562 91.4463,31.77205 133.0783,55.26117 L 1500.862,349.40558 c 76.4849,54.18796 143.1751,121.25265 197.3631,197.73746 l -149.9936,181.57202 c 23.4406,41.55614 42.1661,86.14453 55.2612,133.07828 l 234.5768,22.18031 c 7.7739,45.52686 12.0273,92.10064 12.0273,139.84445 0,47.6626 -4.2796,94.3922 -12.0273,139.8431 l -234.5768,22.1804 c -13.0978,46.9324 -31.8206,91.5221 -55.2612,133.077 l 150.3705,181.5732 c -54.2939,76.6838 -121.4357,143.4317 -198.1339,197.723 l -181.5733,-149.9936 c -41.6046,23.4682 -86.0818,41.7839 -133.0783,54.883 l -22.1948,234.9538 c -45.4417,7.7476 -91.8245,12.0272 -139.4701,12.0272 z m 0,-511.6457 c 173.751,0 314.2733,-140.9005 314.2733,-314.6515 0,-173.74979 -140.5223,-314.65035 -314.2733,-314.65035 -173.75104,0 -314.65032,140.90056 -314.65032,314.65035 0,173.751 140.89928,314.6515 314.65032,314.6515 z" /></clipPath></defs><g
     inkscape:label="Layer 1"
     inkscape:groupmode="layer"
     id="layer1"><g
       id="g8"
       inkscape:label="315949ff623122869508aabcd20d62f0"
       transform="matrix(0.27994829,0,0,-0.27994829,-30.666992,542.66705)"
       clip-path="url(#clipPath17)"><g
         id="g10"><g
           id="g12"
           clip-path="url(#clipPath16)"><g
             id="g18"
             transform="translate(1850.0968,1024)"><path
               d="m 0,0 c 0,-456.241 -369.856,-826.097 -826.097,-826.097 -456.24,0 -826.097,369.856 -826.097,826.097 0,456.241 369.857,826.097 826.097,826.097 C -369.856,826.097 0,456.241 0,0"
               style="fill:#78ff78;fill-opacity:1;fill-rule:nonzero;stroke:none"
               id="path20" /></g></g></g><g
         id="g22"><g
           id="g24"
           clip-path="url(#clipPath28)"><g
             id="g30"
             transform="translate(2031.4543,-28.1416)"><path
               d="m 0,0 v 0 c -48.209,-27.833 -109.853,-11.316 -137.687,36.893 l -1114.115,1929.704 c -27.833,48.209 -11.315,109.853 36.893,137.686 v 0 c 48.208,27.834 109.853,11.316 137.686,-36.893 L 36.893,137.687 C 64.726,89.478 48.209,27.833 0,0"
               style="fill:#ff92f7;fill-opacity:1;fill-rule:nonzero;stroke:none"
               id="path32" /></g><g
             id="g34"
             transform="translate(2031.4543,-28.1416)"><path
               d="m 0,0 v 0 c -48.209,-27.833 -109.853,-11.316 -137.687,36.893 l -1114.115,1929.704 c -27.833,48.209 -11.315,109.853 36.893,137.686 v 0 c 48.208,27.834 109.853,11.316 137.686,-36.893 L 36.893,137.687 C 64.726,89.478 48.209,27.833 0,0 Z"
               style="fill:none;stroke:#ffffff;stroke-width:32;stroke-linecap:butt;stroke-linejoin:miter;stroke-miterlimit:10;stroke-dasharray:none;stroke-opacity:1"
               id="path36" /></g><g
             id="g38"
             transform="translate(1231.4543,-28.1416)"><path
               d="m 0,0 v 0 c -48.209,-27.833 -109.853,-11.316 -137.687,36.893 l -1114.115,1929.704 c -27.833,48.209 -11.315,109.853 36.893,137.686 v 0 c 48.208,27.834 109.853,11.316 137.686,-36.893 L 36.893,137.687 C 64.726,89.478 48.209,27.833 0,0"
               style="fill:#ff92f7;fill-opacity:1;fill-rule:nonzero;stroke:none"
               id="path40" /></g><g
             id="g42"
             transform="translate(1231.4543,-28.1416)"><path
               d="m 0,0 v 0 c -48.209,-27.833 -109.853,-11.316 -137.687,36.893 l -1114.115,1929.704 c -27.833,48.209 -11.315,109.853 36.893,137.686 v 0 c 48.208,27.834 109.853,11.316 137.686,-36.893 L 36.893,137.687 C 64.726,89.478 48.209,27.833 0,0 Z"
               style="fill:none;stroke:#ffffff;stroke-width:32;stroke-linecap:butt;stroke-linejoin:miter;stroke-miterlimit:10;stroke-dasharray:none;stroke-opacity:1"
               id="path44" /></g><g
             id="g46"
             transform="translate(1631.4543,-28.1416)"><path
               d="m 0,0 v 0 c -48.209,-27.833 -109.853,-11.316 -137.687,36.893 l -1114.115,1929.704 c -27.833,48.209 -11.315,109.853 36.893,137.686 v 0 c 48.208,27.834 109.853,11.316 137.686,-36.893 L 36.893,137.687 C 64.726,89.478 48.209,27.833 0,0"
               style="fill:#ff92f7;fill-opacity:1;fill-rule:nonzero;stroke:none"
               id="path48" /></g><g
             id="g50"
             transform="translate(1631.4543,-28.1416)"><path
               d="m 0,0 v 0 c -48.209,-27.833 -109.853,-11.316 -137.687,36.893 l -1114.115,1929.704 c -27.833,48.209 -11.315,109.853 36.893,137.686 v 0 c 48.208,27.834 109.853,11.316 137.686,-36.893 L 36.893,137.687 C 64.726,89.478 48.209,27.833 0,0 Z"
               style="fill:none;stroke:#ffffff;stroke-width:32;stroke-linecap:butt;stroke-linejoin:miter;stroke-miterlimit:10;stroke-dasharray:none;stroke-opacity:1"
               id="path52" /></g></g></g><g
         id="g54"><g
           id="g56"
           clip-path="url(#clipPath60)"><g
             id="g62"
             transform="translate(1850.0968,1024)"><path
               d="m 0,0 c 0,-456.241 -369.856,-826.097 -826.097,-826.097 -456.24,0 -826.097,369.856 -826.097,826.097 0,456.241 369.857,826.097 826.097,826.097 C -369.856,826.097 0,456.241 0,0 Z"
               style="fill:none;stroke:#ffffff;stroke-width:32;stroke-linecap:butt;stroke-linejoin:miter;stroke-miterlimit:10;stroke-dasharray:none;stroke-opacity:1"
               id="path64" /></g></g></g></g><path
       id="path16"
       style="fill:none;stroke:#ffffff;stroke-width:9.69376;stroke-opacity:1"
       inkscape:connector-curvature="0"
       d="m 256.05349,24.738861 c -13.33867,0 -26.42786,1.198051 -39.14921,3.367003 l -6.20386,65.774915 c -13.15622,3.667069 -25.60791,8.794881 -37.25503,15.364381 L 122.61169,67.254704 C 101.13797,82.453482 82.342837,101.13943 67.146989,122.60692 l 42.095971,50.83113 c -6.56217,11.63321 -11.803929,24.11603 -15.470263,37.25468 l -65.67013,6.20936 c -2.168952,12.725 -3.367004,25.80649 -3.367004,39.14883 0,13.36581 1.190726,26.40405 3.367004,39.14921 l 65.67013,6.20936 c 3.666702,13.13901 8.908093,25.62146 15.470263,37.25503 l -41.990089,50.83077 c 15.168743,21.41254 33.838579,40.18752 55.251109,55.35625 l 50.93555,-42.09597 c 11.65481,6.57573 24.08891,11.801 37.25503,15.47027 l 6.20937,65.77454 c 12.72096,2.16895 25.81014,3.26076 39.14884,3.26076 13.33867,0 26.32344,-1.09547 39.04441,-3.26076 l 6.20899,-65.77454 c 13.16611,-3.6689 25.60022,-8.89454 37.25504,-15.47027 l 50.93555,42.09597 c 21.4118,-15.16982 40.08162,-33.94446 55.25147,-55.35625 l -41.99046,-50.83077 c 6.56217,-11.63357 11.80431,-24.11602 15.47027,-37.25503 l 65.66939,-6.20936 c 2.17628,-12.74516 3.367,-25.7834 3.367,-39.14921 0,-13.34307 -1.19804,-26.42492 -3.367,-39.14883 l -65.66939,-6.20936 c -3.6667,-13.13865 -8.9081,-25.62147 -15.47027,-37.25468 l 42.09597,-50.83113 C 429.65424,101.13943 410.858,82.453482 389.38647,67.254704 L 338.55535,109.24516 C 326.90822,102.67529 314.45689,97.547848 301.3003,93.880779 L 295.08692,28.105864 C 282.36558,25.936912 269.38081,24.738861 256.0425,24.738861 Z m 0,143.234329 c 48.6413,0 87.98029,39.44487 87.98029,88.08617 0,48.64093 -39.33899,88.0858 -87.98029,88.0858 -48.6413,0 -88.08581,-39.44487 -88.08581,-88.0858 0,-48.6413 39.44451,-88.08617 88.08581,-88.08617 z" /></g></svg>
